<mxfile host="app.diagrams.net" modified="2024-05-21T18:32:07.250Z" agent="Mozilla/5.0 (Windows NT 10.0; Win64; x64) AppleWebKit/537.36 (KHTML, like Gecko) Chrome/125.0.0.0 Safari/537.36 Edg/125.0.0.0" etag="AiUtXHxtST3qpH_yhwMh" version="24.4.4" type="github">
  <diagram name="PÃ¡gina-1" id="H__Pmpp9VfEYQt3rshP8">
    <mxGraphModel dx="880" dy="561" grid="1" gridSize="10" guides="1" tooltips="1" connect="1" arrows="1" fold="1" page="1" pageScale="1" pageWidth="827" pageHeight="1169" math="0" shadow="0">
      <root>
        <mxCell id="0" />
        <mxCell id="1" parent="0" />
        <mxCell id="XjrlPrrpOa6o11PsiybX-1" value="Persona" style="whiteSpace=wrap;html=1;align=center;" vertex="1" parent="1">
          <mxGeometry x="150" y="340" width="100" height="40" as="geometry" />
        </mxCell>
        <mxCell id="XjrlPrrpOa6o11PsiybX-2" value="Pasaporte" style="ellipse;whiteSpace=wrap;html=1;align=center;" vertex="1" parent="1">
          <mxGeometry x="50" y="230" width="100" height="40" as="geometry" />
        </mxCell>
        <mxCell id="XjrlPrrpOa6o11PsiybX-3" style="rounded=0;orthogonalLoop=1;jettySize=auto;html=1;exitX=0.5;exitY=1;exitDx=0;exitDy=0;entryX=0;entryY=0.5;entryDx=0;entryDy=0;endArrow=none;endFill=0;" edge="1" parent="1" source="XjrlPrrpOa6o11PsiybX-2" target="XjrlPrrpOa6o11PsiybX-1">
          <mxGeometry relative="1" as="geometry" />
        </mxCell>
        <mxCell id="XjrlPrrpOa6o11PsiybX-16" style="rounded=0;orthogonalLoop=1;jettySize=auto;html=1;exitX=0;exitY=1;exitDx=0;exitDy=0;entryX=0.25;entryY=0;entryDx=0;entryDy=0;" edge="1" parent="1" source="XjrlPrrpOa6o11PsiybX-4" target="XjrlPrrpOa6o11PsiybX-1">
          <mxGeometry relative="1" as="geometry" />
        </mxCell>
        <mxCell id="XjrlPrrpOa6o11PsiybX-4" value="Direccion" style="ellipse;whiteSpace=wrap;html=1;align=center;" vertex="1" parent="1">
          <mxGeometry x="154" y="170" width="100" height="40" as="geometry" />
        </mxCell>
        <mxCell id="XjrlPrrpOa6o11PsiybX-13" style="rounded=0;orthogonalLoop=1;jettySize=auto;html=1;exitX=0;exitY=1;exitDx=0;exitDy=0;entryX=1;entryY=0;entryDx=0;entryDy=0;endArrow=none;endFill=0;" edge="1" parent="1" source="XjrlPrrpOa6o11PsiybX-5" target="XjrlPrrpOa6o11PsiybX-4">
          <mxGeometry relative="1" as="geometry" />
        </mxCell>
        <mxCell id="XjrlPrrpOa6o11PsiybX-5" value="Calle&lt;div&gt;&lt;br&gt;&lt;/div&gt;" style="ellipse;whiteSpace=wrap;html=1;align=center;" vertex="1" parent="1">
          <mxGeometry x="254" y="50" width="100" height="40" as="geometry" />
        </mxCell>
        <mxCell id="XjrlPrrpOa6o11PsiybX-11" style="rounded=0;orthogonalLoop=1;jettySize=auto;html=1;exitX=0.5;exitY=1;exitDx=0;exitDy=0;entryX=0;entryY=0;entryDx=0;entryDy=0;endArrow=none;endFill=0;" edge="1" parent="1" source="XjrlPrrpOa6o11PsiybX-6" target="XjrlPrrpOa6o11PsiybX-4">
          <mxGeometry relative="1" as="geometry" />
        </mxCell>
        <mxCell id="XjrlPrrpOa6o11PsiybX-6" value="Numero" style="ellipse;whiteSpace=wrap;html=1;align=center;" vertex="1" parent="1">
          <mxGeometry x="84" y="80" width="100" height="40" as="geometry" />
        </mxCell>
        <mxCell id="XjrlPrrpOa6o11PsiybX-12" style="rounded=0;orthogonalLoop=1;jettySize=auto;html=1;exitX=0.5;exitY=1;exitDx=0;exitDy=0;entryX=0.5;entryY=0;entryDx=0;entryDy=0;endArrow=none;endFill=0;" edge="1" parent="1" source="XjrlPrrpOa6o11PsiybX-7" target="XjrlPrrpOa6o11PsiybX-4">
          <mxGeometry relative="1" as="geometry" />
        </mxCell>
        <mxCell id="XjrlPrrpOa6o11PsiybX-7" value="C.P" style="ellipse;whiteSpace=wrap;html=1;align=center;" vertex="1" parent="1">
          <mxGeometry x="150" y="30" width="100" height="40" as="geometry" />
        </mxCell>
        <mxCell id="XjrlPrrpOa6o11PsiybX-14" style="rounded=0;orthogonalLoop=1;jettySize=auto;html=1;exitX=0;exitY=0.5;exitDx=0;exitDy=0;entryX=1;entryY=0.5;entryDx=0;entryDy=0;endArrow=none;endFill=0;" edge="1" parent="1" source="XjrlPrrpOa6o11PsiybX-8" target="XjrlPrrpOa6o11PsiybX-4">
          <mxGeometry relative="1" as="geometry" />
        </mxCell>
        <mxCell id="XjrlPrrpOa6o11PsiybX-8" value="Colonia" style="ellipse;whiteSpace=wrap;html=1;align=center;" vertex="1" parent="1">
          <mxGeometry x="300" y="130" width="100" height="40" as="geometry" />
        </mxCell>
        <mxCell id="XjrlPrrpOa6o11PsiybX-17" value="Apellido_p" style="ellipse;whiteSpace=wrap;html=1;align=center;" vertex="1" parent="1">
          <mxGeometry x="500" y="260" width="100" height="40" as="geometry" />
        </mxCell>
        <mxCell id="XjrlPrrpOa6o11PsiybX-18" value="Apellido_M" style="ellipse;whiteSpace=wrap;html=1;align=center;" vertex="1" parent="1">
          <mxGeometry x="540" y="335" width="100" height="40" as="geometry" />
        </mxCell>
        <mxCell id="XjrlPrrpOa6o11PsiybX-19" value="Nombre_Competo" style="ellipse;whiteSpace=wrap;html=1;align=center;" vertex="1" parent="1">
          <mxGeometry x="330" y="335" width="120" height="50" as="geometry" />
        </mxCell>
        <mxCell id="XjrlPrrpOa6o11PsiybX-20" value="Nombre" style="ellipse;whiteSpace=wrap;html=1;align=center;" vertex="1" parent="1">
          <mxGeometry x="510" y="410" width="100" height="40" as="geometry" />
        </mxCell>
        <mxCell id="XjrlPrrpOa6o11PsiybX-22" value="" style="endArrow=none;html=1;rounded=0;entryX=0;entryY=0.5;entryDx=0;entryDy=0;" edge="1" parent="1" source="XjrlPrrpOa6o11PsiybX-19" target="XjrlPrrpOa6o11PsiybX-17">
          <mxGeometry relative="1" as="geometry">
            <mxPoint x="450" y="340" as="sourcePoint" />
            <mxPoint x="610" y="340" as="targetPoint" />
          </mxGeometry>
        </mxCell>
        <mxCell id="XjrlPrrpOa6o11PsiybX-23" value="" style="endArrow=none;html=1;rounded=0;exitX=1;exitY=0.5;exitDx=0;exitDy=0;entryX=0;entryY=0.5;entryDx=0;entryDy=0;" edge="1" parent="1" source="XjrlPrrpOa6o11PsiybX-19" target="XjrlPrrpOa6o11PsiybX-18">
          <mxGeometry relative="1" as="geometry">
            <mxPoint x="450" y="340" as="sourcePoint" />
            <mxPoint x="610" y="340" as="targetPoint" />
          </mxGeometry>
        </mxCell>
        <mxCell id="XjrlPrrpOa6o11PsiybX-24" value="" style="endArrow=none;html=1;rounded=0;exitX=1;exitY=1;exitDx=0;exitDy=0;entryX=0.5;entryY=0;entryDx=0;entryDy=0;" edge="1" parent="1" source="XjrlPrrpOa6o11PsiybX-19" target="XjrlPrrpOa6o11PsiybX-20">
          <mxGeometry relative="1" as="geometry">
            <mxPoint x="450" y="340" as="sourcePoint" />
            <mxPoint x="460" y="440" as="targetPoint" />
          </mxGeometry>
        </mxCell>
        <mxCell id="XjrlPrrpOa6o11PsiybX-25" value="" style="endArrow=none;html=1;rounded=0;exitX=1;exitY=0.5;exitDx=0;exitDy=0;entryX=0;entryY=0.5;entryDx=0;entryDy=0;" edge="1" parent="1" source="XjrlPrrpOa6o11PsiybX-1" target="XjrlPrrpOa6o11PsiybX-19">
          <mxGeometry relative="1" as="geometry">
            <mxPoint x="320" y="430" as="sourcePoint" />
            <mxPoint x="610" y="340" as="targetPoint" />
          </mxGeometry>
        </mxCell>
        <mxCell id="XjrlPrrpOa6o11PsiybX-27" value="Telefono" style="ellipse;shape=doubleEllipse;margin=3;whiteSpace=wrap;html=1;align=center;" vertex="1" parent="1">
          <mxGeometry x="50" y="450" width="100" height="40" as="geometry" />
        </mxCell>
        <mxCell id="XjrlPrrpOa6o11PsiybX-28" value="" style="endArrow=none;html=1;rounded=0;exitX=0;exitY=1;exitDx=0;exitDy=0;entryX=0.5;entryY=0;entryDx=0;entryDy=0;" edge="1" parent="1" source="XjrlPrrpOa6o11PsiybX-1" target="XjrlPrrpOa6o11PsiybX-27">
          <mxGeometry relative="1" as="geometry">
            <mxPoint x="210" y="580" as="sourcePoint" />
            <mxPoint x="370" y="580" as="targetPoint" />
          </mxGeometry>
        </mxCell>
      </root>
    </mxGraphModel>
  </diagram>
</mxfile>
